<svg width="23" height="23" viewBox="0 0 23 23" fill="none" xmlns="http://www.w3.org/2000/svg">
<path d="M9.84675 13.3036C8.81175 12.2686 8.03152 11.1097 7.51314 9.93406C7.40344 9.68548 7.46802 9.39444 7.65998 9.20248L8.38448 8.47798C8.97806 7.8844 8.97806 7.04491 8.45968 6.52652L7.42114 5.48887C6.73025 4.79798 5.61033 4.79798 4.91945 5.48887L4.34268 6.06475C3.68718 6.72025 3.41383 7.6659 3.59075 8.6036C4.02775 10.9151 5.3706 13.446 7.53702 15.6124C9.70344 17.7788 12.2343 19.1217 14.5458 19.5587C15.4835 19.7356 16.4292 19.4622 17.0847 18.8067L17.6606 18.2309C18.3514 17.54 18.3514 16.4201 17.6606 15.7292L16.6229 14.6915C16.1045 14.1731 15.2641 14.1731 14.7466 14.6915L13.9478 15.4912C13.7559 15.6832 13.4648 15.7477 13.2163 15.6381C12.0406 15.1188 10.8818 14.3377 9.84675 13.3036V13.3036Z" stroke="#006B8F" stroke-linecap="round" stroke-linejoin="round"/>
<path d="M12.3877 5.60857V3.53857" stroke="#006B8F" stroke-linecap="round" stroke-linejoin="round"/>
<path d="M16.0762 7.06796L17.5358 5.61719" stroke="#006B8F" stroke-linecap="round" stroke-linejoin="round"/>
<path d="M17.5449 10.7656H19.6061" stroke="#006B8F" stroke-linecap="round" stroke-linejoin="round"/>
</svg>
