<svg width="43" height="43" viewBox="0 0 43 43" fill="none" xmlns="http://www.w3.org/2000/svg">
<circle cx="21.5" cy="21.5" r="21" stroke="#006B8F"/>
<path d="M22.5299 26.954C22.5299 26.954 22.9089 26.9154 23.103 26.7239C23.2807 26.5485 23.2745 26.2175 23.2745 26.2175C23.2745 26.2175 23.2509 24.6718 24.0325 24.4436C24.8029 24.2192 25.792 25.9384 26.8417 26.5994C27.6346 27.0993 28.2365 26.9899 28.2365 26.9899L31.0415 26.954C31.0415 26.954 32.5083 26.871 31.8129 25.812C31.7554 25.7252 31.4072 25.0283 29.7279 23.5968C27.9684 22.0982 28.2047 22.3406 30.3226 19.7482C31.6126 18.1695 32.1282 17.2057 31.967 16.7936C31.8139 16.3994 30.8649 16.5041 30.8649 16.5041L27.7075 16.522C27.7075 16.522 27.4734 16.4927 27.2998 16.588C27.1303 16.6814 27.0204 16.8992 27.0204 16.8992C27.0204 16.8992 26.5212 18.1205 25.8546 19.1597C24.4485 21.3514 23.8867 21.4673 23.6566 21.3315C23.1215 21.0137 23.255 20.0565 23.255 19.3766C23.255 17.2519 23.6063 16.3664 22.572 16.1372C22.2289 16.0608 21.9763 16.0108 21.0981 16.0024C19.9713 15.992 19.0182 16.0061 18.4779 16.2485C18.1184 16.4098 17.8411 16.77 18.0106 16.7908C18.2191 16.8162 18.6916 16.9077 18.9422 17.2208C19.2657 17.6254 19.2544 18.5326 19.2544 18.5326C19.2544 18.5326 19.4403 21.0335 18.8199 21.3438C18.3947 21.5569 17.8113 21.1222 16.5572 19.1333C15.9153 18.1148 15.4305 16.9888 15.4305 16.9888C15.4305 16.9888 15.337 16.7785 15.1696 16.6653C14.9673 16.5286 14.6848 16.4861 14.6848 16.4861L11.6846 16.5041C11.6846 16.5041 11.2337 16.5154 11.0683 16.6955C10.9215 16.8549 11.057 17.1859 11.057 17.1859C11.057 17.1859 13.406 22.2322 16.0663 24.7756C18.5057 27.1068 21.2747 26.954 21.2747 26.954H22.5299Z" fill="#006B8F"/>
</svg>
