<svg width="43" height="43" viewBox="0 0 43 43" fill="none" xmlns="http://www.w3.org/2000/svg">
<circle cx="21.5" cy="21.5" r="21" stroke="#006B8F"/>
<path fill-rule="evenodd" clip-rule="evenodd" d="M27.9333 16.825C28.3632 17.3 28.5149 18.375 28.5149 18.375C28.5149 18.375 28.6667 19.65 28.6667 20.925V22.1C28.6667 23.35 28.5149 24.625 28.5149 24.625C28.5149 24.625 28.3632 25.7 27.9333 26.175C27.4043 26.7456 26.8066 26.7962 26.5101 26.8213C26.4948 26.8226 26.4803 26.8238 26.4667 26.825C24.4184 27 21.3333 27 21.3333 27C21.3333 27 17.5149 26.975 16.3517 26.85C16.2899 26.8359 16.2138 26.8254 16.1273 26.8133C15.7535 26.7614 15.1851 26.6825 14.7333 26.175C14.3035 25.7 14.1517 24.625 14.1517 24.625C14.1517 24.625 14 23.375 14 22.1V20.925C14 19.65 14.1517 18.375 14.1517 18.375C14.1517 18.375 14.2782 17.3 14.7333 16.825C15.2624 16.2544 15.8601 16.2038 16.1566 16.1787C16.1719 16.1774 16.1864 16.1762 16.2 16.175C18.2483 16.025 21.3333 16 21.3333 16C21.3333 16 24.4184 16.025 26.4667 16.175C26.4878 16.1769 26.5109 16.1786 26.536 16.1805C26.8404 16.2036 27.4192 16.2475 27.9333 16.825ZM19.5635 24.4001V18.9751L24.3681 21.7501L19.5635 24.4001Z" fill="#006B8F"/>
</svg>
